<?xml version="1.0" encoding="UTF-8" standalone="no"?>
<!DOCTYPE svg PUBLIC "-//W3C//DTD SVG 1.1//EN"
 "http://www.w3.org/Graphics/SVG/1.1/DTD/svg11.dtd">
<!-- Generated by graphviz version 2.38.0 (20140413.2041)
 -->
<!-- Title: %3 Pages: 1 -->
<svg width="762pt" height="469pt"
 viewBox="0.00 0.00 761.98 469.00" xmlns="http://www.w3.org/2000/svg" xmlns:xlink="http://www.w3.org/1999/xlink">
<g id="graph0" class="graph" transform="scale(1 1) rotate(0) translate(4 465)">
<title>%3</title>
<polygon fill="white" stroke="none" points="-4,4 -4,-465 757.977,-465 757.977,4 -4,4"/>
<!-- Petal Length&lt;=2.45? -->
<g id="node1" class="node"><title>Petal Length&lt;=2.45?</title>
<polygon fill="blue" stroke="black" points="618.532,-425.049 624.859,-425.148 631.12,-425.295 637.29,-425.491 643.344,-425.735 649.258,-426.027 655.008,-426.364 660.572,-426.748 665.929,-427.176 671.059,-427.647 675.944,-428.161 680.566,-428.715 684.91,-429.308 688.963,-429.939 692.712,-430.605 696.147,-431.306 699.259,-432.039 702.042,-432.801 704.492,-433.592 706.604,-434.408 708.378,-435.248 709.814,-436.109 710.913,-436.989 711.68,-437.886 712.119,-438.797 712.237,-439.719 712.042,-440.65 711.543,-441.587 710.749,-442.529 709.671,-443.471 708.323,-444.413 706.715,-445.35 704.861,-446.281 702.774,-447.203 700.469,-448.114 697.96,-449.011 695.259,-449.891 692.382,-450.752 689.342,-451.592 686.152,-452.408 682.826,-453.199 679.377,-453.961 675.817,-454.694 672.157,-455.395 668.408,-456.061 664.58,-456.692 660.684,-457.285 656.728,-457.839 652.719,-458.353 648.667,-458.824 644.576,-459.252 640.453,-459.636 636.304,-459.973 632.133,-460.265 627.945,-460.509 623.743,-460.705 619.532,-460.852 615.313,-460.951 611.089,-461 606.865,-461 602.642,-460.951 598.423,-460.852 594.211,-460.705 590.009,-460.509 585.821,-460.265 581.65,-459.973 577.501,-459.636 573.378,-459.252 569.288,-458.824 565.235,-458.353 561.226,-457.839 557.27,-457.285 553.374,-456.692 549.547,-456.061 545.798,-455.395 542.137,-454.694 538.577,-453.961 535.128,-453.199 531.802,-452.408 528.613,-451.592 525.572,-450.752 522.695,-449.891 519.995,-449.011 517.485,-448.114 515.18,-447.203 513.093,-446.281 511.239,-445.35 509.632,-444.413 508.283,-443.471 507.205,-442.529 506.412,-441.587 505.912,-440.65 505.717,-439.719 505.835,-438.797 506.274,-437.886 507.041,-436.989 508.141,-436.109 509.576,-435.248 511.35,-434.408 513.462,-433.592 515.912,-432.801 518.695,-432.039 521.808,-431.306 525.243,-430.605 528.992,-429.939 533.044,-429.308 537.388,-428.715 542.01,-428.161 546.895,-427.647 552.025,-427.176 557.382,-426.748 562.946,-426.364 568.697,-426.027 574.61,-425.735 580.664,-425.491 586.834,-425.295 593.095,-425.148 599.422,-425.049 605.788,-425 612.167,-425 618.532,-425.049"/>
<text text-anchor="middle" x="608.977" y="-439.3" font-family="Lucida Grande" font-size="14.00" fill="white">Petal Length&lt;=2.45?</text>
</g>
<!-- Petal Width&lt;=1.75? -->
<g id="node2" class="node"><title>Petal Width&lt;=1.75?</title>
<polygon fill="blue" stroke="black" points="489.134,-340.049 495.197,-340.148 501.197,-340.295 507.109,-340.491 512.911,-340.735 518.578,-341.027 524.088,-341.364 529.421,-341.748 534.554,-342.176 539.47,-342.647 544.151,-343.161 548.581,-343.715 552.744,-344.308 556.627,-344.939 560.22,-345.605 563.512,-346.306 566.494,-347.039 569.162,-347.801 571.509,-348.592 573.533,-349.408 575.233,-350.248 576.609,-351.109 577.662,-351.989 578.397,-352.886 578.818,-353.797 578.931,-354.719 578.744,-355.65 578.266,-356.587 577.505,-357.529 576.473,-358.471 575.18,-359.413 573.639,-360.35 571.863,-361.281 569.863,-362.203 567.654,-363.114 565.249,-364.011 562.661,-364.891 559.904,-365.752 556.99,-366.592 553.934,-367.408 550.747,-368.199 547.442,-368.961 544.03,-369.694 540.522,-370.395 536.929,-371.061 533.262,-371.692 529.528,-372.285 525.737,-372.839 521.895,-373.353 518.012,-373.824 514.091,-374.252 510.141,-374.636 506.165,-374.973 502.168,-375.265 498.154,-375.509 494.128,-375.705 490.091,-375.852 486.048,-375.951 482.001,-376 477.953,-376 473.906,-375.951 469.863,-375.852 465.826,-375.705 461.8,-375.509 457.786,-375.265 453.789,-374.973 449.813,-374.636 445.863,-374.252 441.943,-373.824 438.059,-373.353 434.218,-372.839 430.426,-372.285 426.693,-371.692 423.025,-371.061 419.432,-370.395 415.925,-369.694 412.513,-368.961 409.207,-368.199 406.02,-367.408 402.964,-366.592 400.05,-365.752 397.293,-364.891 394.705,-364.011 392.3,-363.114 390.091,-362.203 388.092,-361.281 386.315,-360.35 384.774,-359.413 383.482,-358.471 382.449,-357.529 381.689,-356.587 381.21,-355.65 381.023,-354.719 381.136,-353.797 381.557,-352.886 382.292,-351.989 383.346,-351.109 384.721,-350.248 386.421,-349.408 388.445,-348.592 390.793,-347.801 393.46,-347.039 396.443,-346.306 399.734,-345.605 403.327,-344.939 407.21,-344.308 411.374,-343.715 415.803,-343.161 420.484,-342.647 425.4,-342.176 430.534,-341.748 435.866,-341.364 441.376,-341.027 447.043,-340.735 452.845,-340.491 458.758,-340.295 464.758,-340.148 470.82,-340.049 476.921,-340 483.034,-340 489.134,-340.049"/>
<text text-anchor="middle" x="479.977" y="-354.3" font-family="Lucida Grande" font-size="14.00" fill="white">Petal Width&lt;=1.75?</text>
</g>
<!-- Petal Length&lt;=2.45?&#45;&#45;Petal Width&lt;=1.75? -->
<g id="edge16" class="edge"><title>Petal Length&lt;=2.45?&#45;&#45;Petal Width&lt;=1.75?</title>
<path fill="none" stroke="black" stroke-dasharray="5,2" d="M583.182,-425.403C560.536,-410.832 527.788,-389.762 505.288,-375.285"/>
<text text-anchor="middle" x="560.977" y="-397.4" font-family="Courier,monospace" font-size="12.00">No</text>
</g>
<!-- Iris&#45;setosa -->
<g id="node11" class="node"><title>Iris&#45;setosa</title>
<polygon fill="blue" stroke="black" points="657.089,-340.049 660.474,-340.148 663.823,-340.295 667.124,-340.491 670.363,-340.735 673.527,-341.027 676.603,-341.364 679.58,-341.748 682.446,-342.176 685.191,-342.647 687.804,-343.161 690.277,-343.715 692.601,-344.308 694.769,-344.939 696.775,-345.605 698.613,-346.306 700.278,-347.039 701.767,-347.801 703.077,-348.592 704.207,-349.408 705.156,-350.248 705.924,-351.109 706.513,-351.989 706.923,-352.886 707.158,-353.797 707.221,-354.719 707.117,-355.65 706.849,-356.587 706.425,-357.529 705.848,-358.471 705.127,-359.413 704.267,-360.35 703.275,-361.281 702.158,-362.203 700.925,-363.114 699.582,-364.011 698.138,-364.891 696.598,-365.752 694.972,-366.592 693.266,-367.408 691.486,-368.199 689.641,-368.961 687.736,-369.694 685.778,-370.395 683.772,-371.061 681.725,-371.692 679.64,-372.285 677.524,-372.839 675.379,-373.353 673.211,-373.824 671.022,-374.252 668.817,-374.636 666.597,-374.973 664.366,-375.265 662.125,-375.509 659.877,-375.705 657.624,-375.852 655.367,-375.951 653.107,-376 650.847,-376 648.588,-375.951 646.331,-375.852 644.077,-375.705 641.829,-375.509 639.589,-375.265 637.357,-374.973 635.137,-374.636 632.932,-374.252 630.743,-373.824 628.575,-373.353 626.431,-372.839 624.314,-372.285 622.23,-371.692 620.182,-371.061 618.176,-370.395 616.218,-369.694 614.313,-368.961 612.468,-368.199 610.689,-367.408 608.982,-366.592 607.356,-365.752 605.817,-364.891 604.372,-364.011 603.029,-363.114 601.796,-362.203 600.68,-361.281 599.688,-360.35 598.827,-359.413 598.106,-358.471 597.53,-357.529 597.105,-356.587 596.838,-355.65 596.733,-354.719 596.796,-353.797 597.031,-352.886 597.442,-351.989 598.03,-351.109 598.798,-350.248 599.747,-349.408 600.877,-348.592 602.187,-347.801 603.676,-347.039 605.342,-346.306 607.179,-345.605 609.185,-344.939 611.353,-344.308 613.677,-343.715 616.15,-343.161 618.763,-342.647 621.508,-342.176 624.374,-341.748 627.351,-341.364 630.427,-341.027 633.591,-340.735 636.83,-340.491 640.131,-340.295 643.48,-340.148 646.865,-340.049 650.271,-340 653.683,-340 657.089,-340.049"/>
<text text-anchor="middle" x="651.977" y="-354.3" font-family="Lucida Grande" font-size="14.00" fill="white">Iris&#45;setosa</text>
</g>
<!-- Petal Length&lt;=2.45?&#45;&#45;Iris&#45;setosa -->
<g id="edge4" class="edge"><title>Petal Length&lt;=2.45?&#45;&#45;Iris&#45;setosa</title>
<path fill="none" stroke="black" stroke-dasharray="5,2" d="M617.887,-424.802C625.316,-410.463 635.841,-390.146 643.226,-375.892"/>
<text text-anchor="middle" x="645.477" y="-397.4" font-family="Courier,monospace" font-size="12.00">Yes</text>
</g>
<!-- Petal Length&lt;=4.95? -->
<g id="node3" class="node"><title>Petal Length&lt;=4.95?</title>
<polygon fill="blue" stroke="black" points="385.532,-255.049 391.859,-255.148 398.12,-255.295 404.29,-255.491 410.344,-255.735 416.258,-256.027 422.008,-256.364 427.572,-256.748 432.929,-257.176 438.059,-257.647 442.944,-258.161 447.566,-258.715 451.91,-259.308 455.963,-259.939 459.712,-260.605 463.147,-261.306 466.259,-262.039 469.042,-262.801 471.492,-263.592 473.604,-264.408 475.378,-265.248 476.814,-266.109 477.913,-266.989 478.68,-267.886 479.119,-268.797 479.237,-269.719 479.042,-270.65 478.543,-271.587 477.749,-272.529 476.671,-273.471 475.323,-274.413 473.715,-275.35 471.861,-276.281 469.774,-277.203 467.469,-278.114 464.96,-279.011 462.259,-279.891 459.382,-280.752 456.342,-281.592 453.152,-282.408 449.826,-283.199 446.377,-283.961 442.817,-284.694 439.157,-285.395 435.408,-286.061 431.58,-286.692 427.684,-287.285 423.728,-287.839 419.719,-288.353 415.667,-288.824 411.576,-289.252 407.453,-289.636 403.304,-289.973 399.133,-290.265 394.945,-290.509 390.743,-290.705 386.532,-290.852 382.313,-290.951 378.089,-291 373.865,-291 369.642,-290.951 365.423,-290.852 361.211,-290.705 357.009,-290.509 352.821,-290.265 348.65,-289.973 344.501,-289.636 340.378,-289.252 336.288,-288.824 332.235,-288.353 328.226,-287.839 324.27,-287.285 320.374,-286.692 316.547,-286.061 312.798,-285.395 309.137,-284.694 305.577,-283.961 302.128,-283.199 298.802,-282.408 295.613,-281.592 292.572,-280.752 289.695,-279.891 286.995,-279.011 284.485,-278.114 282.18,-277.203 280.093,-276.281 278.239,-275.35 276.632,-274.413 275.283,-273.471 274.205,-272.529 273.412,-271.587 272.912,-270.65 272.717,-269.719 272.835,-268.797 273.274,-267.886 274.041,-266.989 275.141,-266.109 276.576,-265.248 278.35,-264.408 280.462,-263.592 282.912,-262.801 285.695,-262.039 288.808,-261.306 292.243,-260.605 295.992,-259.939 300.044,-259.308 304.388,-258.715 309.01,-258.161 313.895,-257.647 319.025,-257.176 324.382,-256.748 329.946,-256.364 335.697,-256.027 341.61,-255.735 347.664,-255.491 353.834,-255.295 360.095,-255.148 366.422,-255.049 372.788,-255 379.167,-255 385.532,-255.049"/>
<text text-anchor="middle" x="375.977" y="-269.3" font-family="Lucida Grande" font-size="14.00" fill="white">Petal Length&lt;=4.95?</text>
</g>
<!-- Petal Width&lt;=1.75?&#45;&#45;Petal Length&lt;=4.95? -->
<g id="edge6" class="edge"><title>Petal Width&lt;=1.75?&#45;&#45;Petal Length&lt;=4.95?</title>
<path fill="none" stroke="black" stroke-dasharray="5,2" d="M458.931,-340.204C440.769,-325.709 414.686,-304.892 396.637,-290.488"/>
<text text-anchor="middle" x="446.477" y="-312.4" font-family="Courier,monospace" font-size="12.00">Yes</text>
</g>
<!-- Petal Length&lt;=4.85? -->
<g id="node7" class="node"><title>Petal Length&lt;=4.85?</title>
<polygon fill="blue" stroke="black" points="623.532,-170.049 629.859,-170.148 636.12,-170.295 642.29,-170.491 648.344,-170.735 654.258,-171.027 660.008,-171.364 665.572,-171.748 670.929,-172.176 676.059,-172.647 680.944,-173.161 685.566,-173.715 689.91,-174.308 693.963,-174.939 697.712,-175.605 701.147,-176.306 704.259,-177.039 707.042,-177.801 709.492,-178.592 711.604,-179.408 713.378,-180.248 714.814,-181.109 715.913,-181.989 716.68,-182.886 717.119,-183.797 717.237,-184.719 717.042,-185.65 716.543,-186.587 715.749,-187.529 714.671,-188.471 713.323,-189.413 711.715,-190.35 709.861,-191.281 707.774,-192.203 705.469,-193.114 702.96,-194.011 700.259,-194.891 697.382,-195.752 694.342,-196.592 691.152,-197.408 687.826,-198.199 684.377,-198.961 680.817,-199.694 677.157,-200.395 673.408,-201.061 669.58,-201.692 665.684,-202.285 661.728,-202.839 657.719,-203.353 653.667,-203.824 649.576,-204.252 645.453,-204.636 641.304,-204.973 637.133,-205.265 632.945,-205.509 628.743,-205.705 624.532,-205.852 620.313,-205.951 616.089,-206 611.865,-206 607.642,-205.951 603.423,-205.852 599.211,-205.705 595.009,-205.509 590.821,-205.265 586.65,-204.973 582.501,-204.636 578.378,-204.252 574.288,-203.824 570.235,-203.353 566.226,-202.839 562.27,-202.285 558.374,-201.692 554.547,-201.061 550.798,-200.395 547.137,-199.694 543.577,-198.961 540.128,-198.199 536.802,-197.408 533.613,-196.592 530.572,-195.752 527.695,-194.891 524.995,-194.011 522.485,-193.114 520.18,-192.203 518.093,-191.281 516.239,-190.35 514.632,-189.413 513.283,-188.471 512.205,-187.529 511.412,-186.587 510.912,-185.65 510.717,-184.719 510.835,-183.797 511.274,-182.886 512.041,-181.989 513.141,-181.109 514.576,-180.248 516.35,-179.408 518.462,-178.592 520.912,-177.801 523.695,-177.039 526.808,-176.306 530.243,-175.605 533.992,-174.939 538.044,-174.308 542.388,-173.715 547.01,-173.161 551.895,-172.647 557.025,-172.176 562.382,-171.748 567.946,-171.364 573.697,-171.027 579.61,-170.735 585.664,-170.491 591.834,-170.295 598.095,-170.148 604.422,-170.049 610.788,-170 617.167,-170 623.532,-170.049"/>
<text text-anchor="middle" x="613.977" y="-184.3" font-family="Lucida Grande" font-size="14.00" fill="white">Petal Length&lt;=4.85?</text>
</g>
<!-- Petal Width&lt;=1.75?&#45;&#45;Petal Length&lt;=4.85? -->
<g id="edge14" class="edge"><title>Petal Width&lt;=1.75?&#45;&#45;Petal Length&lt;=4.85?</title>
<path fill="none" stroke="black" stroke-dasharray="5,2" d="M493.563,-339.967C519.246,-307.767 574.644,-238.313 600.355,-206.078"/>
<text text-anchor="middle" x="568.977" y="-269.9" font-family="Courier,monospace" font-size="12.00">No</text>
</g>
<!-- Petal Width&lt;=1.65? -->
<g id="node4" class="node"><title>Petal Width&lt;=1.65?</title>
<polygon fill="blue" stroke="black" points="108.134,-85.0493 114.197,-85.1479 120.197,-85.2953 126.109,-85.4913 131.911,-85.7353 137.578,-86.0266 143.088,-86.3645 148.421,-86.7479 153.554,-87.1759 158.47,-87.6472 163.151,-88.1606 167.581,-88.7147 171.744,-89.308 175.627,-89.9388 179.22,-90.6054 182.512,-91.3059 185.494,-92.0385 188.162,-92.8012 190.509,-93.5918 192.533,-94.4082 194.233,-95.2481 195.609,-96.1093 196.662,-96.9894 197.397,-97.886 197.818,-98.7965 197.931,-99.7186 197.744,-100.65 197.266,-101.587 196.505,-102.529 195.473,-103.471 194.18,-104.413 192.639,-105.35 190.863,-106.281 188.863,-107.203 186.654,-108.114 184.249,-109.011 181.661,-109.891 178.904,-110.752 175.99,-111.592 172.934,-112.408 169.747,-113.199 166.442,-113.961 163.03,-114.694 159.522,-115.395 155.929,-116.061 152.262,-116.692 148.528,-117.285 144.737,-117.839 140.895,-118.353 137.012,-118.824 133.091,-119.252 129.141,-119.636 125.165,-119.973 121.168,-120.265 117.154,-120.509 113.128,-120.705 109.091,-120.852 105.048,-120.951 101.001,-121 96.9529,-121 92.9059,-120.951 88.8628,-120.852 84.8265,-120.705 80.7999,-120.509 76.7863,-120.265 72.7895,-119.973 68.8134,-119.636 64.8628,-119.252 60.9426,-118.824 57.0588,-118.353 53.2177,-117.839 49.4263,-117.285 45.6925,-116.692 42.0248,-116.061 38.4322,-115.395 34.9246,-114.694 31.5126,-113.961 28.2073,-113.199 25.0203,-112.408 21.9638,-111.592 19.0504,-110.752 16.2931,-109.891 13.7052,-109.011 11.3001,-108.114 9.09106,-107.203 7.09166,-106.281 5.31507,-105.35 3.77423,-104.413 2.48167,-103.471 1.44935,-102.529 0.688583,-101.587 0.209896,-100.65 0.0228941,-99.7186 0.136154,-98.7965 0.557114,-97.886 1.29196,-96.9894 2.34555,-96.1093 3.72129,-95.2481 5.42109,-94.4082 7.44527,-93.5918 9.79252,-92.8012 12.4599,-92.0385 15.4426,-91.3059 18.7343,-90.6054 22.3269,-89.9388 26.2105,-89.308 30.3736,-88.7147 34.8029,-88.1606 39.4838,-87.6472 44.4,-87.1759 49.5337,-86.7479 54.8658,-86.3645 60.3762,-86.0266 66.0434,-85.7353 71.845,-85.4913 77.7577,-85.2953 83.7576,-85.1479 89.8202,-85.0493 95.9206,-85 102.034,-85 108.134,-85.0493"/>
<text text-anchor="middle" x="98.9771" y="-99.3" font-family="Lucida Grande" font-size="14.00" fill="white">Petal Width&lt;=1.65?</text>
</g>
<!-- Petal Length&lt;=4.95?&#45;&#45;Petal Width&lt;=1.65? -->
<g id="edge2" class="edge"><title>Petal Length&lt;=4.95?&#45;&#45;Petal Width&lt;=1.65?</title>
<path fill="none" stroke="black" stroke-dasharray="5,2" d="M340.215,-255.686C313.456,-243.075 276.245,-224.669 244.977,-206 199.048,-178.578 148.52,-141.637 120.583,-120.566"/>
<text text-anchor="middle" x="256.477" y="-184.9" font-family="Courier,monospace" font-size="12.00">Yes</text>
</g>
<!-- Petal Width&lt;=1.55? -->
<g id="node5" class="node"><title>Petal Width&lt;=1.55?</title>
<polygon fill="blue" stroke="black" points="385.134,-170.049 391.197,-170.148 397.197,-170.295 403.109,-170.491 408.911,-170.735 414.578,-171.027 420.088,-171.364 425.421,-171.748 430.554,-172.176 435.47,-172.647 440.151,-173.161 444.581,-173.715 448.744,-174.308 452.627,-174.939 456.22,-175.605 459.512,-176.306 462.494,-177.039 465.162,-177.801 467.509,-178.592 469.533,-179.408 471.233,-180.248 472.609,-181.109 473.662,-181.989 474.397,-182.886 474.818,-183.797 474.931,-184.719 474.744,-185.65 474.266,-186.587 473.505,-187.529 472.473,-188.471 471.18,-189.413 469.639,-190.35 467.863,-191.281 465.863,-192.203 463.654,-193.114 461.249,-194.011 458.661,-194.891 455.904,-195.752 452.99,-196.592 449.934,-197.408 446.747,-198.199 443.442,-198.961 440.03,-199.694 436.522,-200.395 432.929,-201.061 429.262,-201.692 425.528,-202.285 421.737,-202.839 417.895,-203.353 414.012,-203.824 410.091,-204.252 406.141,-204.636 402.165,-204.973 398.168,-205.265 394.154,-205.509 390.128,-205.705 386.091,-205.852 382.048,-205.951 378.001,-206 373.953,-206 369.906,-205.951 365.863,-205.852 361.826,-205.705 357.8,-205.509 353.786,-205.265 349.789,-204.973 345.813,-204.636 341.863,-204.252 337.943,-203.824 334.059,-203.353 330.218,-202.839 326.426,-202.285 322.693,-201.692 319.025,-201.061 315.432,-200.395 311.925,-199.694 308.513,-198.961 305.207,-198.199 302.02,-197.408 298.964,-196.592 296.05,-195.752 293.293,-194.891 290.705,-194.011 288.3,-193.114 286.091,-192.203 284.092,-191.281 282.315,-190.35 280.774,-189.413 279.482,-188.471 278.449,-187.529 277.689,-186.587 277.21,-185.65 277.023,-184.719 277.136,-183.797 277.557,-182.886 278.292,-181.989 279.346,-181.109 280.721,-180.248 282.421,-179.408 284.445,-178.592 286.793,-177.801 289.46,-177.039 292.443,-176.306 295.734,-175.605 299.327,-174.939 303.21,-174.308 307.374,-173.715 311.803,-173.161 316.484,-172.647 321.4,-172.176 326.534,-171.748 331.866,-171.364 337.376,-171.027 343.043,-170.735 348.845,-170.491 354.758,-170.295 360.758,-170.148 366.82,-170.049 372.921,-170 379.034,-170 385.134,-170.049"/>
<text text-anchor="middle" x="375.977" y="-184.3" font-family="Lucida Grande" font-size="14.00" fill="white">Petal Width&lt;=1.55?</text>
</g>
<!-- Petal Length&lt;=4.95?&#45;&#45;Petal Width&lt;=1.55? -->
<g id="edge15" class="edge"><title>Petal Length&lt;=4.95?&#45;&#45;Petal Width&lt;=1.55?</title>
<path fill="none" stroke="black" stroke-dasharray="5,2" d="M375.977,-254.802C375.977,-240.557 375.977,-220.414 375.977,-206.176"/>
<text text-anchor="middle" x="383.977" y="-227.4" font-family="Courier,monospace" font-size="12.00">No</text>
</g>
<!-- Iris&#45;virginica -->
<g id="node9" class="node"><title>Iris&#45;virginica</title>
<polygon fill="blue" stroke="black" points="473.922,-0.0493367 477.857,-0.147875 481.752,-0.295345 485.591,-0.491342 489.357,-0.735329 493.036,-1.02664 496.614,-1.36447 500.075,-1.7479 503.408,-2.17587 506.599,-2.64722 509.638,-3.16064 512.514,-3.71474 515.216,-4.308 517.737,-4.93879 520.07,-5.60537 522.207,-6.30593 524.143,-7.03854 525.875,-7.80119 527.398,-8.5918 528.712,-9.4082 529.816,-10.2481 530.709,-11.1093 531.393,-11.9894 531.87,-12.886 532.143,-13.7965 532.217,-14.7186 532.095,-15.6497 531.785,-16.5873 531.291,-17.5287 530.621,-18.4713 529.781,-19.4127 528.781,-20.3503 527.628,-21.2814 526.33,-22.2035 524.896,-23.114 523.334,-24.0106 521.654,-24.8907 519.864,-25.7519 517.973,-26.5918 515.989,-27.4082 513.92,-28.1988 511.774,-28.9615 509.559,-29.6941 507.282,-30.3946 504.95,-31.0612 502.569,-31.692 500.145,-32.2853 497.683,-32.8394 495.19,-33.3528 492.669,-33.8241 490.124,-34.2521 487.559,-34.6355 484.978,-34.9734 482.383,-35.2647 479.777,-35.5087 477.163,-35.7047 474.543,-35.8521 471.918,-35.9507 469.291,-36 466.663,-36 464.036,-35.9507 461.411,-35.8521 458.791,-35.7047 456.177,-35.5087 453.571,-35.2647 450.976,-34.9734 448.395,-34.6355 445.831,-34.2521 443.286,-33.8241 440.764,-33.3528 438.271,-32.8394 435.809,-32.2853 433.385,-31.692 431.004,-31.0612 428.672,-30.3946 426.395,-29.6941 424.18,-28.9615 422.034,-28.1988 419.965,-27.4082 417.981,-26.5918 416.09,-25.7519 414.3,-24.8907 412.62,-24.0106 411.058,-23.114 409.624,-22.2035 408.326,-21.2814 407.173,-20.3503 406.173,-19.4127 405.334,-18.4713 404.663,-17.5287 404.17,-16.5873 403.859,-15.6497 403.737,-14.7186 403.811,-13.7965 404.084,-12.886 404.561,-11.9894 405.245,-11.1093 406.138,-10.2481 407.242,-9.4082 408.556,-8.5918 410.08,-7.80119 411.811,-7.03854 413.748,-6.30593 415.885,-5.60537 418.217,-4.93879 420.738,-4.308 423.441,-3.71474 426.316,-3.16064 429.355,-2.64722 432.546,-2.17587 435.879,-1.7479 439.341,-1.36447 442.918,-1.02664 446.597,-0.735329 450.363,-0.491342 454.202,-0.295345 458.097,-0.147875 462.033,-0.0493367 465.993,-1.77636e-013 469.961,-1.84741e-013 473.922,-0.0493367"/>
<text text-anchor="middle" x="467.977" y="-14.3" font-family="Lucida Grande" font-size="14.00" fill="white">Iris&#45;virginica</text>
</g>
<!-- Petal Width&lt;=1.65?&#45;&#45;Iris&#45;virginica -->
<g id="edge12" class="edge"><title>Petal Width&lt;=1.65?&#45;&#45;Iris&#45;virginica</title>
<path fill="none" stroke="black" stroke-dasharray="5,2" d="M156.872,-87.441C196.946,-77.5435 251.573,-64.4084 299.977,-54 341.563,-45.0576 352.353,-44.7634 393.977,-36 403.909,-33.9089 414.562,-31.5377 424.602,-29.2442"/>
<text text-anchor="middle" x="307.977" y="-57.4" font-family="Courier,monospace" font-size="12.00">No</text>
</g>
<!-- Iris&#45;versicolor -->
<g id="node10" class="node"><title>Iris&#45;versicolor</title>
<polygon fill="blue" stroke="black" points="322.402,-0.0493367 326.656,-0.147875 330.865,-0.295345 335.014,-0.491342 339.085,-0.735329 343.061,-1.02664 346.927,-1.36447 350.669,-1.7479 354.271,-2.17587 357.72,-2.64722 361.004,-3.16064 364.112,-3.71474 367.033,-4.308 369.758,-4.93879 372.279,-5.60537 374.588,-6.30593 376.681,-7.03854 378.553,-7.80119 380.199,-8.5918 381.62,-9.4082 382.812,-10.2481 383.778,-11.1093 384.517,-11.9894 385.032,-12.886 385.328,-13.7965 385.407,-14.7186 385.276,-15.6497 384.94,-16.5873 384.406,-17.5287 383.682,-18.4713 382.775,-19.4127 381.694,-20.3503 380.448,-21.2814 379.045,-22.2035 377.495,-23.114 375.807,-24.0106 373.991,-24.8907 372.057,-25.7519 370.013,-26.5918 367.868,-27.4082 365.632,-28.1988 363.313,-28.9615 360.919,-29.6941 358.458,-30.3946 355.937,-31.0612 353.364,-31.692 350.744,-32.2853 348.084,-32.8394 345.389,-33.3528 342.664,-33.8241 339.913,-34.2521 337.141,-34.6355 334.351,-34.9734 331.547,-35.2647 328.731,-35.5087 325.906,-35.7047 323.074,-35.8521 320.237,-35.9507 317.397,-36 314.557,-36 311.717,-35.9507 308.881,-35.8521 306.048,-35.7047 303.223,-35.5087 300.407,-35.2647 297.603,-34.9734 294.813,-34.6355 292.041,-34.2521 289.291,-33.8241 286.566,-33.3528 283.87,-32.8394 281.21,-32.2853 278.591,-31.692 276.017,-31.0612 273.496,-30.3946 271.035,-29.6941 268.641,-28.9615 266.322,-28.1988 264.086,-27.4082 261.942,-26.5918 259.897,-25.7519 257.963,-24.8907 256.147,-24.0106 254.459,-23.114 252.91,-22.2035 251.507,-21.2814 250.26,-20.3503 249.179,-19.4127 248.272,-18.4713 247.548,-17.5287 247.014,-16.5873 246.678,-15.6497 246.547,-14.7186 246.626,-13.7965 246.922,-12.886 247.437,-11.9894 248.177,-11.1093 249.142,-10.2481 250.335,-9.4082 251.755,-8.5918 253.402,-7.80119 255.273,-7.03854 257.366,-6.30593 259.676,-5.60537 262.196,-4.93879 264.921,-4.308 267.842,-3.71474 270.95,-3.16064 274.234,-2.64722 277.684,-2.17587 281.286,-1.7479 285.027,-1.36447 288.893,-1.02664 292.87,-0.735329 296.94,-0.491342 301.089,-0.295345 305.299,-0.147875 309.552,-0.0493367 313.833,-1.77636e-013 318.122,-1.84741e-013 322.402,-0.0493367"/>
<text text-anchor="middle" x="315.977" y="-14.3" font-family="Lucida Grande" font-size="14.00" fill="white">Iris&#45;versicolor</text>
</g>
<!-- Petal Width&lt;=1.65?&#45;&#45;Iris&#45;versicolor -->
<g id="edge5" class="edge"><title>Petal Width&lt;=1.65?&#45;&#45;Iris&#45;versicolor</title>
<path fill="none" stroke="black" stroke-dasharray="5,2" d="M130.283,-85.6194C149.964,-75.7008 176.069,-63.2274 199.977,-54 223.723,-44.8351 250.936,-36.5147 273.035,-30.2881"/>
<text text-anchor="middle" x="211.477" y="-57.4" font-family="Courier,monospace" font-size="12.00">Yes</text>
</g>
<!-- Sepal Length&lt;=6.95? -->
<g id="node6" class="node"><title>Sepal Length&lt;=6.95?</title>
<polygon fill="blue" stroke="black" points="332.849,-85.0493 339.385,-85.1479 345.854,-85.2953 352.228,-85.4913 358.483,-85.7353 364.592,-86.0266 370.533,-86.3645 376.282,-86.7479 381.816,-87.1759 387.116,-87.6472 392.163,-88.1606 396.938,-88.7147 401.426,-89.308 405.613,-89.9388 409.486,-90.6054 413.035,-91.3059 416.25,-92.0385 419.126,-92.8012 421.657,-93.5918 423.839,-94.4082 425.671,-95.2481 427.155,-96.1093 428.29,-96.9894 429.083,-97.886 429.537,-98.7965 429.659,-99.7186 429.457,-100.65 428.941,-101.587 428.121,-102.529 427.008,-103.471 425.614,-104.413 423.953,-105.35 422.038,-106.281 419.882,-107.203 417.501,-108.114 414.908,-109.011 412.118,-109.891 409.145,-110.752 406.004,-111.592 402.709,-112.408 399.273,-113.199 395.71,-113.961 392.031,-114.694 388.25,-115.395 384.377,-116.061 380.423,-116.692 376.397,-117.285 372.31,-117.839 368.169,-118.353 363.982,-118.824 359.755,-119.252 355.496,-119.636 351.21,-119.973 346.901,-120.265 342.574,-120.509 338.233,-120.705 333.881,-120.852 329.522,-120.951 325.159,-121 320.795,-121 316.432,-120.951 312.073,-120.852 307.721,-120.705 303.38,-120.509 299.053,-120.265 294.745,-119.973 290.458,-119.636 286.199,-119.252 281.973,-118.824 277.785,-118.353 273.644,-117.839 269.557,-117.285 265.532,-116.692 261.577,-116.061 257.704,-115.395 253.923,-114.694 250.244,-113.961 246.681,-113.199 243.245,-112.408 239.95,-111.592 236.809,-110.752 233.836,-109.891 231.046,-109.011 228.453,-108.114 226.072,-107.203 223.916,-106.281 222.001,-105.35 220.34,-104.413 218.946,-103.471 217.833,-102.529 217.013,-101.587 216.497,-100.65 216.296,-99.7186 216.418,-98.7965 216.872,-97.886 217.664,-96.9894 218.8,-96.1093 220.283,-95.2481 222.115,-94.4082 224.298,-93.5918 226.828,-92.8012 229.704,-92.0385 232.919,-91.3059 236.468,-90.6054 240.341,-89.9388 244.528,-89.308 249.016,-88.7147 253.792,-88.1606 258.838,-87.6472 264.138,-87.1759 269.673,-86.7479 275.421,-86.3645 281.362,-86.0266 287.472,-85.7353 293.726,-85.4913 300.101,-85.2953 306.569,-85.1479 313.105,-85.0493 319.682,-85 326.272,-85 332.849,-85.0493"/>
<text text-anchor="middle" x="322.977" y="-99.3" font-family="Lucida Grande" font-size="14.00" fill="white">Sepal Length&lt;=6.95?</text>
</g>
<!-- Petal Width&lt;=1.55?&#45;&#45;Sepal Length&lt;=6.95? -->
<g id="edge13" class="edge"><title>Petal Width&lt;=1.55?&#45;&#45;Sepal Length&lt;=6.95?</title>
<path fill="none" stroke="black" stroke-dasharray="5,2" d="M364.995,-169.802C355.839,-155.463 342.865,-135.146 333.763,-120.892"/>
<text text-anchor="middle" x="360.977" y="-142.4" font-family="Courier,monospace" font-size="12.00">No</text>
</g>
<!-- Petal Width&lt;=1.55?&#45;&#45;Iris&#45;virginica -->
<g id="edge3" class="edge"><title>Petal Width&lt;=1.55?&#45;&#45;Iris&#45;virginica</title>
<path fill="none" stroke="black" stroke-dasharray="5,2" d="M396.576,-170.22C410.411,-157.928 428.045,-140.113 438.977,-121 454.608,-93.6732 462.296,-57.3427 465.679,-36.2296"/>
<text text-anchor="middle" x="466.477" y="-99.9" font-family="Courier,monospace" font-size="12.00">Yes</text>
</g>
<!-- Sepal Length&lt;=6.95?&#45;&#45;Iris&#45;virginica -->
<g id="edge10" class="edge"><title>Sepal Length&lt;=6.95?&#45;&#45;Iris&#45;virginica</title>
<path fill="none" stroke="black" stroke-dasharray="5,2" d="M351.972,-85.4032C378.253,-70.3594 416.638,-48.3873 441.953,-33.8964"/>
<text text-anchor="middle" x="412.977" y="-57.4" font-family="Courier,monospace" font-size="12.00">No</text>
</g>
<!-- Sepal Length&lt;=6.95?&#45;&#45;Iris&#45;versicolor -->
<g id="edge7" class="edge"><title>Sepal Length&lt;=6.95?&#45;&#45;Iris&#45;versicolor</title>
<path fill="none" stroke="black" stroke-dasharray="5,2" d="M321.527,-84.8023C320.325,-70.5575 318.627,-50.4144 317.426,-36.1756"/>
<text text-anchor="middle" x="331.477" y="-57.4" font-family="Courier,monospace" font-size="12.00">Yes</text>
</g>
<!-- Sepal Length&lt;=5.95? -->
<g id="node8" class="node"><title>Sepal Length&lt;=5.95?</title>
<polygon fill="blue" stroke="black" points="623.849,-85.0493 630.385,-85.1479 636.854,-85.2953 643.228,-85.4913 649.483,-85.7353 655.592,-86.0266 661.533,-86.3645 667.282,-86.7479 672.816,-87.1759 678.116,-87.6472 683.163,-88.1606 687.938,-88.7147 692.426,-89.308 696.613,-89.9388 700.486,-90.6054 704.035,-91.3059 707.25,-92.0385 710.126,-92.8012 712.657,-93.5918 714.839,-94.4082 716.671,-95.2481 718.155,-96.1093 719.29,-96.9894 720.083,-97.886 720.537,-98.7965 720.659,-99.7186 720.457,-100.65 719.941,-101.587 719.121,-102.529 718.008,-103.471 716.614,-104.413 714.953,-105.35 713.038,-106.281 710.882,-107.203 708.501,-108.114 705.908,-109.011 703.118,-109.891 700.145,-110.752 697.004,-111.592 693.709,-112.408 690.273,-113.199 686.71,-113.961 683.031,-114.694 679.25,-115.395 675.377,-116.061 671.423,-116.692 667.397,-117.285 663.31,-117.839 659.169,-118.353 654.982,-118.824 650.755,-119.252 646.496,-119.636 642.21,-119.973 637.901,-120.265 633.574,-120.509 629.233,-120.705 624.881,-120.852 620.522,-120.951 616.159,-121 611.795,-121 607.432,-120.951 603.073,-120.852 598.721,-120.705 594.38,-120.509 590.053,-120.265 585.745,-119.973 581.458,-119.636 577.199,-119.252 572.973,-118.824 568.785,-118.353 564.644,-117.839 560.557,-117.285 556.532,-116.692 552.577,-116.061 548.704,-115.395 544.923,-114.694 541.244,-113.961 537.681,-113.199 534.245,-112.408 530.95,-111.592 527.809,-110.752 524.836,-109.891 522.046,-109.011 519.453,-108.114 517.072,-107.203 514.916,-106.281 513.001,-105.35 511.34,-104.413 509.946,-103.471 508.833,-102.529 508.013,-101.587 507.497,-100.65 507.296,-99.7186 507.418,-98.7965 507.872,-97.886 508.664,-96.9894 509.8,-96.1093 511.283,-95.2481 513.115,-94.4082 515.298,-93.5918 517.828,-92.8012 520.704,-92.0385 523.919,-91.3059 527.468,-90.6054 531.341,-89.9388 535.528,-89.308 540.016,-88.7147 544.792,-88.1606 549.838,-87.6472 555.138,-87.1759 560.673,-86.7479 566.421,-86.3645 572.362,-86.0266 578.472,-85.7353 584.726,-85.4913 591.101,-85.2953 597.569,-85.1479 604.105,-85.0493 610.682,-85 617.272,-85 623.849,-85.0493"/>
<text text-anchor="middle" x="613.977" y="-99.3" font-family="Lucida Grande" font-size="14.00" fill="white">Sepal Length&lt;=5.95?</text>
</g>
<!-- Petal Length&lt;=4.85?&#45;&#45;Sepal Length&lt;=5.95? -->
<g id="edge1" class="edge"><title>Petal Length&lt;=4.85?&#45;&#45;Sepal Length&lt;=5.95?</title>
<path fill="none" stroke="black" stroke-dasharray="5,2" d="M613.977,-169.802C613.977,-155.557 613.977,-135.414 613.977,-121.176"/>
<text text-anchor="middle" x="625.477" y="-142.4" font-family="Courier,monospace" font-size="12.00">Yes</text>
</g>
<!-- Petal Length&lt;=4.85?&#45;&#45;Iris&#45;virginica -->
<g id="edge11" class="edge"><title>Petal Length&lt;=4.85?&#45;&#45;Iris&#45;virginica</title>
<path fill="none" stroke="black" stroke-dasharray="5,2" d="M657.054,-171.063C700.443,-152.577 757.342,-120.113 729.977,-85 704.675,-52.5339 590.931,-33.5636 521.899,-24.8433"/>
<text text-anchor="middle" x="745.977" y="-99.9" font-family="Courier,monospace" font-size="12.00">No</text>
</g>
<!-- Sepal Length&lt;=5.95?&#45;&#45;Iris&#45;virginica -->
<g id="edge9" class="edge"><title>Sepal Length&lt;=5.95?&#45;&#45;Iris&#45;virginica</title>
<path fill="none" stroke="black" stroke-dasharray="5,2" d="M591.592,-85.21C578.153,-75.4993 560.508,-63.3844 543.977,-54 530.081,-46.1114 514.095,-38.5399 500.381,-32.4696"/>
<text text-anchor="middle" x="571.977" y="-57.4" font-family="Courier,monospace" font-size="12.00">No</text>
</g>
<!-- Sepal Length&lt;=5.95?&#45;&#45;Iris&#45;versicolor -->
<g id="edge8" class="edge"><title>Sepal Length&lt;=5.95?&#45;&#45;Iris&#45;versicolor</title>
<path fill="none" stroke="black" stroke-dasharray="5,2" d="M559.319,-86.7765C501.182,-70.5839 410.491,-45.3244 357.795,-30.6473"/>
<text text-anchor="middle" x="494.477" y="-57.4" font-family="Courier,monospace" font-size="12.00">Yes</text>
</g>
</g>
</svg>
